<svg aria-label="It Skills" role="img" fill="currentColor" xmlns="http://www.w3.org/2000/svg" viewBox="20 30 250 75" version="1.0"><defs><g/><clipPath id="ac0688e2cd"><path d="M 0 0 L 283 0 L 283 141.5 L 0 141.5 Z M 0 0 "/></clipPath><clipPath id="581b23908b"><path d="M 204.539062 41.011719 L 233.285156 41.011719 L 233.285156 68.886719 L 204.539062 68.886719 Z M 204.539062 41.011719 " clip-rule="nonzero"/></clipPath><clipPath id="a0e938b36e"><path d="M 211.277344 41.011719 L 226.484375 41.011719 C 228.269531 41.011719 229.984375 41.722656 231.25 42.988281 C 232.511719 44.25 233.222656 45.964844 233.222656 47.753906 L 233.222656 62.148438 C 233.222656 63.9375 232.511719 65.652344 231.25 66.914062 C 229.984375 68.179688 228.269531 68.886719 226.484375 68.886719 L 211.277344 68.886719 C 209.488281 68.886719 207.773438 68.179688 206.511719 66.914062 C 205.246094 65.652344 204.539062 63.9375 204.539062 62.148438 L 204.539062 47.753906 C 204.539062 44.03125 207.554688 41.011719 211.277344 41.011719 Z M 211.277344 41.011719 " clip-rule="nonzero"/></clipPath><clipPath id="3519308912"><path d="M 204.539062 72.046875 L 233.285156 72.046875 L 233.285156 99.921875 L 204.539062 99.921875 Z M 204.539062 72.046875 " clip-rule="nonzero"/></clipPath><clipPath id="780f9d01b9"><path d="M 211.277344 72.046875 L 226.484375 72.046875 C 228.269531 72.046875 229.984375 72.757812 231.25 74.023438 C 232.511719 75.285156 233.222656 77 233.222656 78.785156 L 233.222656 93.183594 C 233.222656 94.972656 232.511719 96.683594 231.25 97.949219 C 229.984375 99.210938 228.269531 99.921875 226.484375 99.921875 L 211.277344 99.921875 C 209.488281 99.921875 207.773438 99.210938 206.511719 97.949219 C 205.246094 96.683594 204.539062 94.972656 204.539062 93.183594 L 204.539062 78.785156 C 204.539062 75.066406 207.554688 72.046875 211.277344 72.046875 Z M 211.277344 72.046875 " clip-rule="nonzero"/></clipPath><clipPath id="022231fac6"><path d="M 235.675781 72.046875 L 264.421875 72.046875 L 264.421875 99.921875 L 235.675781 99.921875 Z M 235.675781 72.046875 " clip-rule="nonzero"/></clipPath><clipPath id="aed6ec4016"><path d="M 242.414062 72.046875 L 257.621094 72.046875 C 259.410156 72.046875 261.121094 72.757812 262.386719 74.023438 C 263.648438 75.285156 264.359375 77 264.359375 78.785156 L 264.359375 93.183594 C 264.359375 94.972656 263.648438 96.683594 262.386719 97.949219 C 261.121094 99.210938 259.410156 99.921875 257.621094 99.921875 L 242.414062 99.921875 C 240.628906 99.921875 238.914062 99.210938 237.648438 97.949219 C 236.386719 96.683594 235.675781 94.972656 235.675781 93.183594 L 235.675781 78.785156 C 235.675781 75.066406 238.691406 72.046875 242.414062 72.046875 Z M 242.414062 72.046875 " clip-rule="nonzero"/></clipPath><clipPath id="9e374038f7"><path d="M 235.675781 41.011719 L 263.550781 41.011719 L 263.550781 68.886719 L 235.675781 68.886719 Z M 235.675781 41.011719 " clip-rule="nonzero"/></clipPath><clipPath id="b468dbbadb"><path d="M 249.613281 41.011719 C 241.914062 41.011719 235.675781 47.253906 235.675781 54.949219 C 235.675781 62.648438 241.914062 68.886719 249.613281 68.886719 C 257.308594 68.886719 263.550781 62.648438 263.550781 54.949219 C 263.550781 47.253906 257.308594 41.011719 249.613281 41.011719 Z M 249.613281 41.011719 " clip-rule="nonzero"/></clipPath></defs><g clip-path="url(#581b23908b)"><g clip-path="url(#a0e938b36e)"><path fill="#231f20" d="M 204.539062 41.011719 L 233.175781 41.011719 L 233.175781 68.886719 L 204.539062 68.886719 Z M 204.539062 41.011719 " fill-opacity="1" fill-rule="nonzero"/></g></g><g clip-path="url(#3519308912)"><g clip-path="url(#780f9d01b9)"><path fill="#231f20" d="M 204.539062 72.046875 L 233.175781 72.046875 L 233.175781 99.921875 L 204.539062 99.921875 Z M 204.539062 72.046875 " fill-opacity="1" fill-rule="nonzero"/></g></g><g clip-path="url(#022231fac6)"><g clip-path="url(#aed6ec4016)"><path fill="#231f20" d="M 235.675781 72.046875 L 264.3125 72.046875 L 264.3125 99.921875 L 235.675781 99.921875 Z M 235.675781 72.046875 " fill-opacity="1" fill-rule="nonzero"/></g></g><g clip-path="url(#9e374038f7)"><g clip-path="url(#b468dbbadb)"><path fill="#1f7189" d="M 235.675781 41.011719 L 263.550781 41.011719 L 263.550781 68.886719 L 235.675781 68.886719 Z M 235.675781 41.011719 " fill-opacity="1" fill-rule="nonzero"/></g></g><g fill="#000000" fill-opacity="1"><g transform="translate(25.222088, 84.643578)"><g><path d="M 12.5 -41.578125 L 12.5 0 L 3.03125 0 L 3.03125 -41.578125 Z M 12.5 -41.578125 "/></g></g></g><g fill="#000000" fill-opacity="1"><g transform="translate(38.323071, 84.643578)"><g><path d="M 0.40625 -33.265625 L 0.40625 -41.578125 L 29.640625 -41.578125 L 29.640625 -33.265625 L 19.765625 -33.265625 L 19.765625 0 L 10.28125 0 L 10.28125 -33.265625 Z M 0.40625 -33.265625 "/></g></g></g><g fill="#1f7189" fill-opacity="1"><g transform="translate(64.579478, 84.643578)"><g><path d="M 14.265625 -26.609375 C 15.742188 -26.609375 17.203125 -26.441406 18.640625 -26.109375 C 20.085938 -25.773438 21.164062 -25.441406 21.875 -25.109375 L 22.9375 -24.59375 L 20.015625 -18.75 C 17.992188 -19.820312 16.078125 -20.359375 14.265625 -20.359375 C 13.253906 -20.359375 12.539062 -20.25 12.125 -20.03125 C 11.707031 -19.8125 11.5 -19.398438 11.5 -18.796875 C 11.5 -18.660156 11.515625 -18.523438 11.546875 -18.390625 C 11.578125 -18.265625 11.640625 -18.140625 11.734375 -18.015625 C 11.835938 -17.898438 11.929688 -17.800781 12.015625 -17.71875 C 12.097656 -17.632812 12.238281 -17.539062 12.4375 -17.4375 C 12.644531 -17.34375 12.804688 -17.269531 12.921875 -17.21875 C 13.046875 -17.164062 13.238281 -17.085938 13.5 -16.984375 C 13.769531 -16.878906 13.972656 -16.800781 14.109375 -16.75 C 14.242188 -16.707031 14.46875 -16.632812 14.78125 -16.53125 C 15.101562 -16.425781 15.351562 -16.359375 15.53125 -16.328125 C 16.570312 -16.023438 17.476562 -15.6875 18.25 -15.3125 C 19.019531 -14.945312 19.832031 -14.445312 20.6875 -13.8125 C 21.550781 -13.175781 22.21875 -12.367188 22.6875 -11.390625 C 23.15625 -10.421875 23.390625 -9.3125 23.390625 -8.0625 C 23.390625 -2.1875 19.304688 0.75 11.140625 0.75 C 9.296875 0.75 7.539062 0.46875 5.875 -0.09375 C 4.207031 -0.664062 3.003906 -1.238281 2.265625 -1.8125 L 1.15625 -2.71875 L 4.78125 -8.828125 C 5.050781 -8.585938 5.40625 -8.304688 5.84375 -7.984375 C 6.28125 -7.671875 7.070312 -7.234375 8.21875 -6.671875 C 9.363281 -6.117188 10.351562 -5.84375 11.1875 -5.84375 C 13.039062 -5.84375 13.96875 -6.46875 13.96875 -7.71875 C 13.96875 -8.28125 13.726562 -8.722656 13.25 -9.046875 C 12.78125 -9.367188 11.984375 -9.726562 10.859375 -10.125 C 9.734375 -10.53125 8.851562 -10.898438 8.21875 -11.234375 C 6.601562 -12.078125 5.320312 -13.023438 4.375 -14.078125 C 3.4375 -15.140625 2.96875 -16.546875 2.96875 -18.296875 C 2.96875 -20.921875 3.984375 -22.960938 6.015625 -24.421875 C 8.054688 -25.878906 10.804688 -26.609375 14.265625 -26.609375 Z M 14.265625 -26.609375 "/></g></g></g><g fill="#1f7189" fill-opacity="1"><g transform="translate(89.37145, 84.643578)"><g><path d="M 32.5625 -25.859375 L 20.265625 -13.515625 L 33.765625 0 L 22.28125 0 L 11.953125 -10.328125 L 11.953125 0 L 3.03125 0 L 3.03125 -43.34375 L 11.953125 -43.34375 L 11.953125 -16.828125 L 20.96875 -25.859375 Z M 32.5625 -25.859375 "/></g></g></g><g fill="#1f7189" fill-opacity="1"><g transform="translate(121.923499, 84.643578)"><g><path d="M 3.875 -40.28125 C 4.914062 -41.320312 6.160156 -41.84375 7.609375 -41.84375 C 9.054688 -41.84375 10.300781 -41.320312 11.34375 -40.28125 C 12.382812 -39.238281 12.90625 -37.992188 12.90625 -36.546875 C 12.90625 -35.097656 12.382812 -33.851562 11.34375 -32.8125 C 10.300781 -31.769531 9.054688 -31.25 7.609375 -31.25 C 6.160156 -31.25 4.914062 -31.769531 3.875 -32.8125 C 2.832031 -33.851562 2.3125 -35.097656 2.3125 -36.546875 C 2.3125 -37.992188 2.832031 -39.238281 3.875 -40.28125 Z M 3.03125 -25.859375 L 3.03125 0 L 11.953125 0 L 11.953125 -25.859375 Z M 3.03125 -25.859375 "/></g></g></g><g fill="#1f7189" fill-opacity="1"><g transform="translate(137.14133, 84.643578)"><g><path d="M 3.03125 0 L 3.03125 -43.34375 L 11.953125 -43.34375 L 11.953125 0 Z M 3.03125 0 "/></g></g></g><g fill="#1f7189" fill-opacity="1"><g transform="translate(152.107207, 84.643578)"><g><path d="M 3.03125 0 L 3.03125 -43.34375 L 11.953125 -43.34375 L 11.953125 0 Z M 3.03125 0 "/></g></g></g><g fill="#1f7189" fill-opacity="1"><g transform="translate(167.073085, 84.643578)"><g><path d="M 14.265625 -26.609375 C 15.742188 -26.609375 17.203125 -26.441406 18.640625 -26.109375 C 20.085938 -25.773438 21.164062 -25.441406 21.875 -25.109375 L 22.9375 -24.59375 L 20.015625 -18.75 C 17.992188 -19.820312 16.078125 -20.359375 14.265625 -20.359375 C 13.253906 -20.359375 12.539062 -20.25 12.125 -20.03125 C 11.707031 -19.8125 11.5 -19.398438 11.5 -18.796875 C 11.5 -18.660156 11.515625 -18.523438 11.546875 -18.390625 C 11.578125 -18.265625 11.640625 -18.140625 11.734375 -18.015625 C 11.835938 -17.898438 11.929688 -17.800781 12.015625 -17.71875 C 12.097656 -17.632812 12.238281 -17.539062 12.4375 -17.4375 C 12.644531 -17.34375 12.804688 -17.269531 12.921875 -17.21875 C 13.046875 -17.164062 13.238281 -17.085938 13.5 -16.984375 C 13.769531 -16.878906 13.972656 -16.800781 14.109375 -16.75 C 14.242188 -16.707031 14.46875 -16.632812 14.78125 -16.53125 C 15.101562 -16.425781 15.351562 -16.359375 15.53125 -16.328125 C 16.570312 -16.023438 17.476562 -15.6875 18.25 -15.3125 C 19.019531 -14.945312 19.832031 -14.445312 20.6875 -13.8125 C 21.550781 -13.175781 22.21875 -12.367188 22.6875 -11.390625 C 23.15625 -10.421875 23.390625 -9.3125 23.390625 -8.0625 C 23.390625 -2.1875 19.304688 0.75 11.140625 0.75 C 9.296875 0.75 7.539062 0.46875 5.875 -0.09375 C 4.207031 -0.664062 3.003906 -1.238281 2.265625 -1.8125 L 1.15625 -2.71875 L 4.78125 -8.828125 C 5.050781 -8.585938 5.40625 -8.304688 5.84375 -7.984375 C 6.28125 -7.671875 7.070312 -7.234375 8.21875 -6.671875 C 9.363281 -6.117188 10.351562 -5.84375 11.1875 -5.84375 C 13.039062 -5.84375 13.96875 -6.46875 13.96875 -7.71875 C 13.96875 -8.28125 13.726562 -8.722656 13.25 -9.046875 C 12.78125 -9.367188 11.984375 -9.726562 10.859375 -10.125 C 9.734375 -10.53125 8.851562 -10.898438 8.21875 -11.234375 C 6.601562 -12.078125 5.320312 -13.023438 4.375 -14.078125 C 3.4375 -15.140625 2.96875 -16.546875 2.96875 -18.296875 C 2.96875 -20.921875 3.984375 -22.960938 6.015625 -24.421875 C 8.054688 -25.878906 10.804688 -26.609375 14.265625 -26.609375 Z M 14.265625 -26.609375 "/></g></g></g><g fill="#000000" fill-opacity="1"><g transform="translate(23.441452, 98.068083)"><g><path d="M 1.03125 0 C 0.96875 0 0.910156 -0.0195312 0.859375 -0.0625 C 0.816406 -0.113281 0.796875 -0.171875 0.796875 -0.234375 L 0.796875 -5.96875 C 0.796875 -6.039062 0.816406 -6.097656 0.859375 -6.140625 C 0.910156 -6.191406 0.96875 -6.21875 1.03125 -6.21875 C 1.101562 -6.21875 1.160156 -6.191406 1.203125 -6.140625 C 1.242188 -6.097656 1.265625 -6.039062 1.265625 -5.96875 L 1.265625 -3.34375 L 5.28125 -3.34375 L 5.28125 -5.96875 C 5.28125 -6.039062 5.300781 -6.097656 5.34375 -6.140625 C 5.394531 -6.191406 5.457031 -6.21875 5.53125 -6.21875 C 5.59375 -6.21875 5.644531 -6.191406 5.6875 -6.140625 C 5.738281 -6.097656 5.765625 -6.039062 5.765625 -5.96875 L 5.765625 -0.234375 C 5.765625 -0.171875 5.738281 -0.113281 5.6875 -0.0625 C 5.644531 -0.0195312 5.59375 0 5.53125 0 C 5.457031 0 5.394531 -0.0195312 5.34375 -0.0625 C 5.300781 -0.113281 5.28125 -0.171875 5.28125 -0.234375 L 5.28125 -2.921875 L 1.265625 -2.921875 L 1.265625 -0.234375 C 1.265625 -0.171875 1.242188 -0.113281 1.203125 -0.0625 C 1.160156 -0.0195312 1.101562 0 1.03125 0 Z M 1.03125 0 "/></g></g></g><g fill="#000000" fill-opacity="1"><g transform="translate(36.032643, 98.068083)"><g><path d="M 3.1875 0.125 C 2.71875 0.125 2.300781 0.0351562 1.9375 -0.140625 C 1.582031 -0.328125 1.300781 -0.582031 1.09375 -0.90625 C 0.894531 -1.238281 0.796875 -1.613281 0.796875 -2.03125 L 0.796875 -5.96875 C 0.796875 -6.039062 0.816406 -6.097656 0.859375 -6.140625 C 0.910156 -6.191406 0.96875 -6.21875 1.03125 -6.21875 C 1.101562 -6.21875 1.160156 -6.191406 1.203125 -6.140625 C 1.242188 -6.097656 1.265625 -6.039062 1.265625 -5.96875 L 1.265625 -2.03125 C 1.265625 -1.707031 1.34375 -1.414062 1.5 -1.15625 C 1.664062 -0.90625 1.894531 -0.707031 2.1875 -0.5625 C 2.476562 -0.414062 2.8125 -0.34375 3.1875 -0.34375 C 3.550781 -0.34375 3.878906 -0.414062 4.171875 -0.5625 C 4.460938 -0.707031 4.6875 -0.90625 4.84375 -1.15625 C 5.007812 -1.414062 5.09375 -1.707031 5.09375 -2.03125 L 5.09375 -5.96875 C 5.09375 -6.039062 5.113281 -6.097656 5.15625 -6.140625 C 5.207031 -6.191406 5.269531 -6.21875 5.34375 -6.21875 C 5.414062 -6.21875 5.472656 -6.191406 5.515625 -6.140625 C 5.554688 -6.097656 5.578125 -6.039062 5.578125 -5.96875 L 5.578125 -2.03125 C 5.578125 -1.613281 5.472656 -1.238281 5.265625 -0.90625 C 5.066406 -0.582031 4.785156 -0.328125 4.421875 -0.140625 C 4.054688 0.0351562 3.644531 0.125 3.1875 0.125 Z M 3.1875 0.125 "/></g></g></g><g fill="#000000" fill-opacity="1"><g transform="translate(48.433052, 98.068083)"><g><path d="M 6.78125 -6.21875 C 6.84375 -6.21875 6.894531 -6.191406 6.9375 -6.140625 C 6.976562 -6.097656 7 -6.039062 7 -5.96875 L 7 -0.234375 C 7 -0.171875 6.976562 -0.113281 6.9375 -0.0625 C 6.894531 -0.0195312 6.84375 0 6.78125 0 C 6.707031 0 6.644531 -0.0195312 6.59375 -0.0625 C 6.550781 -0.113281 6.53125 -0.171875 6.53125 -0.234375 L 6.53125 -5.109375 L 4.109375 -0.1875 C 4.078125 -0.113281 4.007812 -0.078125 3.90625 -0.078125 C 3.8125 -0.078125 3.738281 -0.128906 3.6875 -0.234375 L 1.265625 -5.046875 L 1.265625 -0.234375 C 1.265625 -0.171875 1.242188 -0.113281 1.203125 -0.0625 C 1.160156 -0.0195312 1.101562 0 1.03125 0 C 0.96875 0 0.910156 -0.0195312 0.859375 -0.0625 C 0.816406 -0.113281 0.796875 -0.171875 0.796875 -0.234375 L 0.796875 -5.96875 C 0.796875 -6.039062 0.816406 -6.097656 0.859375 -6.140625 C 0.910156 -6.191406 0.96875 -6.21875 1.03125 -6.21875 C 1.132812 -6.21875 1.207031 -6.175781 1.25 -6.09375 L 3.921875 -0.8125 L 6.5625 -6.09375 C 6.613281 -6.175781 6.6875 -6.21875 6.78125 -6.21875 Z M 6.78125 -6.21875 "/></g></g></g><g fill="#000000" fill-opacity="1"><g transform="translate(62.264284, 98.068083)"><g><path d="M 5.46875 -0.34375 C 5.476562 -0.3125 5.484375 -0.273438 5.484375 -0.234375 C 5.484375 -0.171875 5.457031 -0.113281 5.40625 -0.0625 C 5.363281 -0.0195312 5.3125 0 5.25 0 C 5.144531 0 5.070312 -0.0507812 5.03125 -0.15625 L 4.4375 -1.5625 L 1.203125 -1.5625 L 0.609375 -0.15625 C 0.578125 -0.0507812 0.503906 0 0.390625 0 C 0.316406 0 0.257812 -0.0195312 0.21875 -0.0625 C 0.175781 -0.113281 0.15625 -0.171875 0.15625 -0.234375 C 0.15625 -0.273438 0.160156 -0.3125 0.171875 -0.34375 L 2.578125 -6.046875 C 2.617188 -6.160156 2.695312 -6.21875 2.8125 -6.21875 C 2.914062 -6.21875 2.992188 -6.160156 3.046875 -6.046875 Z M 1.390625 -1.984375 L 4.25 -1.984375 L 2.8125 -5.421875 Z M 1.390625 -1.984375 "/></g></g></g><g fill="#000000" fill-opacity="1"><g transform="translate(73.885701, 98.068083)"><g><path d="M 1.03125 0 C 0.96875 0 0.910156 -0.0195312 0.859375 -0.0625 C 0.816406 -0.113281 0.796875 -0.171875 0.796875 -0.234375 L 0.796875 -5.96875 C 0.796875 -6.039062 0.816406 -6.097656 0.859375 -6.140625 C 0.910156 -6.191406 0.96875 -6.21875 1.03125 -6.21875 C 1.101562 -6.21875 1.164062 -6.1875 1.21875 -6.125 L 5.25 -0.875 L 5.25 -5.96875 C 5.25 -6.039062 5.269531 -6.097656 5.3125 -6.140625 C 5.363281 -6.191406 5.425781 -6.21875 5.5 -6.21875 C 5.5625 -6.21875 5.613281 -6.191406 5.65625 -6.140625 C 5.707031 -6.097656 5.734375 -6.039062 5.734375 -5.96875 L 5.734375 -0.234375 C 5.734375 -0.171875 5.707031 -0.113281 5.65625 -0.0625 C 5.613281 -0.0195312 5.5625 0 5.5 0 C 5.425781 0 5.367188 -0.0234375 5.328125 -0.078125 L 1.265625 -5.34375 L 1.265625 -0.234375 C 1.265625 -0.171875 1.242188 -0.113281 1.203125 -0.0625 C 1.160156 -0.0195312 1.101562 0 1.03125 0 Z M 1.03125 0 "/></g></g></g><g fill="#000000" fill-opacity="1"><g transform="translate(86.445094, 98.068083)"><g/></g></g><g fill="#000000" fill-opacity="1"><g transform="translate(94.80741, 98.068083)"><g><path d="M 4.578125 -0.359375 C 4.617188 -0.285156 4.640625 -0.226562 4.640625 -0.1875 C 4.640625 -0.125 4.613281 -0.078125 4.5625 -0.046875 C 4.519531 -0.015625 4.457031 0 4.375 0 C 4.320312 0 4.28125 -0.0078125 4.25 -0.03125 C 4.21875 -0.0507812 4.1875 -0.0820312 4.15625 -0.125 L 2.703125 -2.46875 L 1.265625 -2.46875 L 1.265625 -0.234375 C 1.265625 -0.171875 1.242188 -0.113281 1.203125 -0.0625 C 1.160156 -0.0195312 1.101562 0 1.03125 0 C 0.96875 0 0.910156 -0.0195312 0.859375 -0.0625 C 0.816406 -0.113281 0.796875 -0.171875 0.796875 -0.234375 L 0.796875 -5.96875 C 0.796875 -6.039062 0.816406 -6.097656 0.859375 -6.140625 C 0.910156 -6.191406 0.96875 -6.21875 1.03125 -6.21875 L 2.546875 -6.21875 C 2.929688 -6.21875 3.273438 -6.132812 3.578125 -5.96875 C 3.878906 -5.8125 4.113281 -5.585938 4.28125 -5.296875 C 4.457031 -5.015625 4.546875 -4.691406 4.546875 -4.328125 C 4.546875 -3.890625 4.421875 -3.515625 4.171875 -3.203125 C 3.929688 -2.890625 3.609375 -2.671875 3.203125 -2.546875 Z M 2.546875 -2.9375 C 2.835938 -2.9375 3.097656 -2.992188 3.328125 -3.109375 C 3.554688 -3.234375 3.734375 -3.398438 3.859375 -3.609375 C 3.992188 -3.816406 4.0625 -4.054688 4.0625 -4.328125 C 4.0625 -4.597656 3.992188 -4.835938 3.859375 -5.046875 C 3.734375 -5.265625 3.554688 -5.429688 3.328125 -5.546875 C 3.097656 -5.671875 2.835938 -5.734375 2.546875 -5.734375 L 1.265625 -5.734375 L 1.265625 -2.9375 Z M 2.546875 -2.9375 "/></g></g></g><g fill="#000000" fill-opacity="1"><g transform="translate(105.673667, 98.068083)"><g><path d="M 1.03125 0 C 0.96875 0 0.910156 -0.0195312 0.859375 -0.0625 C 0.816406 -0.113281 0.796875 -0.171875 0.796875 -0.234375 L 0.796875 -5.96875 C 0.796875 -6.039062 0.816406 -6.097656 0.859375 -6.140625 C 0.910156 -6.191406 0.96875 -6.21875 1.03125 -6.21875 L 4.859375 -6.21875 C 4.921875 -6.21875 4.972656 -6.191406 5.015625 -6.140625 C 5.066406 -6.097656 5.09375 -6.039062 5.09375 -5.96875 C 5.09375 -5.90625 5.066406 -5.847656 5.015625 -5.796875 C 4.972656 -5.753906 4.921875 -5.734375 4.859375 -5.734375 L 1.265625 -5.734375 L 1.265625 -3.34375 L 3.90625 -3.34375 C 3.976562 -3.34375 4.035156 -3.320312 4.078125 -3.28125 C 4.117188 -3.238281 4.140625 -3.179688 4.140625 -3.109375 C 4.140625 -3.035156 4.117188 -2.972656 4.078125 -2.921875 C 4.035156 -2.878906 3.976562 -2.859375 3.90625 -2.859375 L 1.265625 -2.859375 L 1.265625 -0.484375 L 4.859375 -0.484375 C 4.921875 -0.484375 4.972656 -0.457031 5.015625 -0.40625 C 5.066406 -0.351562 5.09375 -0.296875 5.09375 -0.234375 C 5.09375 -0.171875 5.066406 -0.113281 5.015625 -0.0625 C 4.972656 -0.0195312 4.921875 0 4.859375 0 Z M 1.03125 0 "/></g></g></g><g fill="#000000" fill-opacity="1"><g transform="translate(117.15994, 98.068083)"><g><path d="M 2.65625 0.078125 C 2.15625 0.078125 1.722656 -0.0195312 1.359375 -0.21875 C 0.992188 -0.425781 0.722656 -0.707031 0.546875 -1.0625 C 0.523438 -1.09375 0.515625 -1.125 0.515625 -1.15625 C 0.515625 -1.21875 0.535156 -1.269531 0.578125 -1.3125 C 0.628906 -1.363281 0.691406 -1.390625 0.765625 -1.390625 C 0.867188 -1.390625 0.945312 -1.335938 1 -1.234375 C 1.132812 -0.960938 1.34375 -0.753906 1.625 -0.609375 C 1.914062 -0.460938 2.257812 -0.390625 2.65625 -0.390625 C 3.113281 -0.390625 3.472656 -0.503906 3.734375 -0.734375 C 3.992188 -0.960938 4.125 -1.285156 4.125 -1.703125 C 4.125 -2.066406 3.992188 -2.363281 3.734375 -2.59375 C 3.484375 -2.832031 3.101562 -2.988281 2.59375 -3.0625 C 2.007812 -3.144531 1.546875 -3.335938 1.203125 -3.640625 C 0.867188 -3.941406 0.703125 -4.304688 0.703125 -4.734375 C 0.703125 -5.035156 0.78125 -5.304688 0.9375 -5.546875 C 1.09375 -5.785156 1.3125 -5.96875 1.59375 -6.09375 C 1.882812 -6.226562 2.210938 -6.296875 2.578125 -6.296875 C 2.972656 -6.296875 3.332031 -6.203125 3.65625 -6.015625 C 3.976562 -5.828125 4.210938 -5.601562 4.359375 -5.34375 C 4.378906 -5.300781 4.390625 -5.257812 4.390625 -5.21875 C 4.390625 -5.175781 4.378906 -5.132812 4.359375 -5.09375 C 4.335938 -5.0625 4.304688 -5.035156 4.265625 -5.015625 C 4.242188 -5.003906 4.210938 -5 4.171875 -5 C 4.078125 -5 4 -5.039062 3.9375 -5.125 C 3.625 -5.582031 3.171875 -5.8125 2.578125 -5.8125 C 2.140625 -5.8125 1.796875 -5.710938 1.546875 -5.515625 C 1.304688 -5.316406 1.1875 -5.039062 1.1875 -4.6875 C 1.1875 -4.382812 1.304688 -4.132812 1.546875 -3.9375 C 1.796875 -3.738281 2.175781 -3.59375 2.6875 -3.5 C 3.351562 -3.394531 3.835938 -3.191406 4.140625 -2.890625 C 4.453125 -2.585938 4.609375 -2.191406 4.609375 -1.703125 C 4.609375 -1.335938 4.523438 -1.019531 4.359375 -0.75 C 4.203125 -0.476562 3.972656 -0.269531 3.671875 -0.125 C 3.378906 0.0078125 3.039062 0.078125 2.65625 0.078125 Z M 2.65625 0.078125 "/></g></g></g><g fill="#000000" fill-opacity="1"><g transform="translate(128.312363, 98.068083)"><g><path d="M 3.671875 0.078125 C 3.066406 0.078125 2.519531 -0.0546875 2.03125 -0.328125 C 1.550781 -0.609375 1.171875 -0.992188 0.890625 -1.484375 C 0.617188 -1.972656 0.484375 -2.515625 0.484375 -3.109375 C 0.484375 -3.703125 0.617188 -4.238281 0.890625 -4.71875 C 1.171875 -5.207031 1.550781 -5.59375 2.03125 -5.875 C 2.519531 -6.15625 3.066406 -6.296875 3.671875 -6.296875 C 4.265625 -6.296875 4.800781 -6.15625 5.28125 -5.875 C 5.769531 -5.59375 6.148438 -5.207031 6.421875 -4.71875 C 6.703125 -4.238281 6.84375 -3.703125 6.84375 -3.109375 C 6.84375 -2.515625 6.703125 -1.972656 6.421875 -1.484375 C 6.148438 -0.992188 5.769531 -0.609375 5.28125 -0.328125 C 4.800781 -0.0546875 4.265625 0.078125 3.671875 0.078125 Z M 3.671875 -0.390625 C 4.171875 -0.390625 4.625 -0.507812 5.03125 -0.75 C 5.445312 -0.988281 5.773438 -1.3125 6.015625 -1.71875 C 6.253906 -2.132812 6.375 -2.597656 6.375 -3.109375 C 6.375 -3.609375 6.253906 -4.066406 6.015625 -4.484375 C 5.773438 -4.898438 5.445312 -5.222656 5.03125 -5.453125 C 4.625 -5.691406 4.171875 -5.8125 3.671875 -5.8125 C 3.160156 -5.8125 2.695312 -5.691406 2.28125 -5.453125 C 1.863281 -5.222656 1.535156 -4.898438 1.296875 -4.484375 C 1.066406 -4.066406 0.953125 -3.609375 0.953125 -3.109375 C 0.953125 -2.597656 1.066406 -2.132812 1.296875 -1.71875 C 1.535156 -1.3125 1.863281 -0.988281 2.28125 -0.75 C 2.695312 -0.507812 3.160156 -0.390625 3.671875 -0.390625 Z M 3.671875 -0.390625 "/></g></g></g><g fill="#000000" fill-opacity="1"><g transform="translate(141.66666, 98.068083)"><g><path d="M 3.1875 0.125 C 2.71875 0.125 2.300781 0.0351562 1.9375 -0.140625 C 1.582031 -0.328125 1.300781 -0.582031 1.09375 -0.90625 C 0.894531 -1.238281 0.796875 -1.613281 0.796875 -2.03125 L 0.796875 -5.96875 C 0.796875 -6.039062 0.816406 -6.097656 0.859375 -6.140625 C 0.910156 -6.191406 0.96875 -6.21875 1.03125 -6.21875 C 1.101562 -6.21875 1.160156 -6.191406 1.203125 -6.140625 C 1.242188 -6.097656 1.265625 -6.039062 1.265625 -5.96875 L 1.265625 -2.03125 C 1.265625 -1.707031 1.34375 -1.414062 1.5 -1.15625 C 1.664062 -0.90625 1.894531 -0.707031 2.1875 -0.5625 C 2.476562 -0.414062 2.8125 -0.34375 3.1875 -0.34375 C 3.550781 -0.34375 3.878906 -0.414062 4.171875 -0.5625 C 4.460938 -0.707031 4.6875 -0.90625 4.84375 -1.15625 C 5.007812 -1.414062 5.09375 -1.707031 5.09375 -2.03125 L 5.09375 -5.96875 C 5.09375 -6.039062 5.113281 -6.097656 5.15625 -6.140625 C 5.207031 -6.191406 5.269531 -6.21875 5.34375 -6.21875 C 5.414062 -6.21875 5.472656 -6.191406 5.515625 -6.140625 C 5.554688 -6.097656 5.578125 -6.039062 5.578125 -5.96875 L 5.578125 -2.03125 C 5.578125 -1.613281 5.472656 -1.238281 5.265625 -0.90625 C 5.066406 -0.582031 4.785156 -0.328125 4.421875 -0.140625 C 4.054688 0.0351562 3.644531 0.125 3.1875 0.125 Z M 3.1875 0.125 "/></g></g></g><g fill="#000000" fill-opacity="1"><g transform="translate(154.067071, 98.068083)"><g><path d="M 4.578125 -0.359375 C 4.617188 -0.285156 4.640625 -0.226562 4.640625 -0.1875 C 4.640625 -0.125 4.613281 -0.078125 4.5625 -0.046875 C 4.519531 -0.015625 4.457031 0 4.375 0 C 4.320312 0 4.28125 -0.0078125 4.25 -0.03125 C 4.21875 -0.0507812 4.1875 -0.0820312 4.15625 -0.125 L 2.703125 -2.46875 L 1.265625 -2.46875 L 1.265625 -0.234375 C 1.265625 -0.171875 1.242188 -0.113281 1.203125 -0.0625 C 1.160156 -0.0195312 1.101562 0 1.03125 0 C 0.96875 0 0.910156 -0.0195312 0.859375 -0.0625 C 0.816406 -0.113281 0.796875 -0.171875 0.796875 -0.234375 L 0.796875 -5.96875 C 0.796875 -6.039062 0.816406 -6.097656 0.859375 -6.140625 C 0.910156 -6.191406 0.96875 -6.21875 1.03125 -6.21875 L 2.546875 -6.21875 C 2.929688 -6.21875 3.273438 -6.132812 3.578125 -5.96875 C 3.878906 -5.8125 4.113281 -5.585938 4.28125 -5.296875 C 4.457031 -5.015625 4.546875 -4.691406 4.546875 -4.328125 C 4.546875 -3.890625 4.421875 -3.515625 4.171875 -3.203125 C 3.929688 -2.890625 3.609375 -2.671875 3.203125 -2.546875 Z M 2.546875 -2.9375 C 2.835938 -2.9375 3.097656 -2.992188 3.328125 -3.109375 C 3.554688 -3.234375 3.734375 -3.398438 3.859375 -3.609375 C 3.992188 -3.816406 4.0625 -4.054688 4.0625 -4.328125 C 4.0625 -4.597656 3.992188 -4.835938 3.859375 -5.046875 C 3.734375 -5.265625 3.554688 -5.429688 3.328125 -5.546875 C 3.097656 -5.671875 2.835938 -5.734375 2.546875 -5.734375 L 1.265625 -5.734375 L 1.265625 -2.9375 Z M 2.546875 -2.9375 "/></g></g></g><g fill="#000000" fill-opacity="1"><g transform="translate(164.933327, 98.068083)"><g><path d="M 3.59375 0.078125 C 3.03125 0.078125 2.507812 -0.0625 2.03125 -0.34375 C 1.550781 -0.632812 1.171875 -1.023438 0.890625 -1.515625 C 0.617188 -2.015625 0.484375 -2.546875 0.484375 -3.109375 C 0.484375 -3.671875 0.617188 -4.195312 0.890625 -4.6875 C 1.171875 -5.175781 1.546875 -5.566406 2.015625 -5.859375 C 2.492188 -6.148438 3.019531 -6.296875 3.59375 -6.296875 C 4.332031 -6.296875 4.984375 -6.054688 5.546875 -5.578125 C 5.597656 -5.546875 5.625 -5.492188 5.625 -5.421875 C 5.625 -5.359375 5.601562 -5.300781 5.5625 -5.25 C 5.519531 -5.195312 5.460938 -5.171875 5.390625 -5.171875 C 5.328125 -5.171875 5.257812 -5.203125 5.1875 -5.265625 C 4.78125 -5.628906 4.25 -5.8125 3.59375 -5.8125 C 3.125 -5.8125 2.6875 -5.6875 2.28125 -5.4375 C 1.875 -5.1875 1.550781 -4.851562 1.3125 -4.4375 C 1.070312 -4.019531 0.953125 -3.578125 0.953125 -3.109375 C 0.953125 -2.617188 1.066406 -2.164062 1.296875 -1.75 C 1.535156 -1.332031 1.859375 -1 2.265625 -0.75 C 2.671875 -0.507812 3.113281 -0.390625 3.59375 -0.390625 C 4.21875 -0.390625 4.765625 -0.585938 5.234375 -0.984375 C 5.265625 -1.003906 5.304688 -1.015625 5.359375 -1.015625 C 5.421875 -1.015625 5.472656 -0.988281 5.515625 -0.9375 C 5.566406 -0.894531 5.59375 -0.835938 5.59375 -0.765625 C 5.59375 -0.703125 5.578125 -0.648438 5.546875 -0.609375 C 5.085938 -0.148438 4.4375 0.078125 3.59375 0.078125 Z M 3.59375 0.078125 "/></g></g></g><g fill="#000000" fill-opacity="1"><g transform="translate(177.06348, 98.068083)"><g><path d="M 1.03125 0 C 0.96875 0 0.910156 -0.0195312 0.859375 -0.0625 C 0.816406 -0.113281 0.796875 -0.171875 0.796875 -0.234375 L 0.796875 -5.96875 C 0.796875 -6.039062 0.816406 -6.097656 0.859375 -6.140625 C 0.910156 -6.191406 0.96875 -6.21875 1.03125 -6.21875 L 4.859375 -6.21875 C 4.921875 -6.21875 4.972656 -6.191406 5.015625 -6.140625 C 5.066406 -6.097656 5.09375 -6.039062 5.09375 -5.96875 C 5.09375 -5.90625 5.066406 -5.847656 5.015625 -5.796875 C 4.972656 -5.753906 4.921875 -5.734375 4.859375 -5.734375 L 1.265625 -5.734375 L 1.265625 -3.34375 L 3.90625 -3.34375 C 3.976562 -3.34375 4.035156 -3.320312 4.078125 -3.28125 C 4.117188 -3.238281 4.140625 -3.179688 4.140625 -3.109375 C 4.140625 -3.035156 4.117188 -2.972656 4.078125 -2.921875 C 4.035156 -2.878906 3.976562 -2.859375 3.90625 -2.859375 L 1.265625 -2.859375 L 1.265625 -0.484375 L 4.859375 -0.484375 C 4.921875 -0.484375 4.972656 -0.457031 5.015625 -0.40625 C 5.066406 -0.351562 5.09375 -0.296875 5.09375 -0.234375 C 5.09375 -0.171875 5.066406 -0.113281 5.015625 -0.0625 C 4.972656 -0.0195312 4.921875 0 4.859375 0 Z M 1.03125 0 "/></g></g></g><g fill="#000000" fill-opacity="1"><g transform="translate(188.549758, 98.068083)"><g><path d="M 2.65625 0.078125 C 2.15625 0.078125 1.722656 -0.0195312 1.359375 -0.21875 C 0.992188 -0.425781 0.722656 -0.707031 0.546875 -1.0625 C 0.523438 -1.09375 0.515625 -1.125 0.515625 -1.15625 C 0.515625 -1.21875 0.535156 -1.269531 0.578125 -1.3125 C 0.628906 -1.363281 0.691406 -1.390625 0.765625 -1.390625 C 0.867188 -1.390625 0.945312 -1.335938 1 -1.234375 C 1.132812 -0.960938 1.34375 -0.753906 1.625 -0.609375 C 1.914062 -0.460938 2.257812 -0.390625 2.65625 -0.390625 C 3.113281 -0.390625 3.472656 -0.503906 3.734375 -0.734375 C 3.992188 -0.960938 4.125 -1.285156 4.125 -1.703125 C 4.125 -2.066406 3.992188 -2.363281 3.734375 -2.59375 C 3.484375 -2.832031 3.101562 -2.988281 2.59375 -3.0625 C 2.007812 -3.144531 1.546875 -3.335938 1.203125 -3.640625 C 0.867188 -3.941406 0.703125 -4.304688 0.703125 -4.734375 C 0.703125 -5.035156 0.78125 -5.304688 0.9375 -5.546875 C 1.09375 -5.785156 1.3125 -5.96875 1.59375 -6.09375 C 1.882812 -6.226562 2.210938 -6.296875 2.578125 -6.296875 C 2.972656 -6.296875 3.332031 -6.203125 3.65625 -6.015625 C 3.976562 -5.828125 4.210938 -5.601562 4.359375 -5.34375 C 4.378906 -5.300781 4.390625 -5.257812 4.390625 -5.21875 C 4.390625 -5.175781 4.378906 -5.132812 4.359375 -5.09375 C 4.335938 -5.0625 4.304688 -5.035156 4.265625 -5.015625 C 4.242188 -5.003906 4.210938 -5 4.171875 -5 C 4.078125 -5 4 -5.039062 3.9375 -5.125 C 3.625 -5.582031 3.171875 -5.8125 2.578125 -5.8125 C 2.140625 -5.8125 1.796875 -5.710938 1.546875 -5.515625 C 1.304688 -5.316406 1.1875 -5.039062 1.1875 -4.6875 C 1.1875 -4.382812 1.304688 -4.132812 1.546875 -3.9375 C 1.796875 -3.738281 2.175781 -3.59375 2.6875 -3.5 C 3.351562 -3.394531 3.835938 -3.191406 4.140625 -2.890625 C 4.453125 -2.585938 4.609375 -2.191406 4.609375 -1.703125 C 4.609375 -1.335938 4.523438 -1.019531 4.359375 -0.75 C 4.203125 -0.476562 3.972656 -0.269531 3.671875 -0.125 C 3.378906 0.0078125 3.039062 0.078125 2.65625 0.078125 Z M 2.65625 0.078125 "/></g></g></g></svg>
