<?xml version="1.0" encoding="utf-8"?>
<!DOCTYPE svg PUBLIC "-//W3C//DTD SVG 1.1//EN" "http://www.w3.org/Graphics/SVG/1.1/DTD/svg11.dtd">
<svg aria-label="Salentein" role="img" version="1.1" id="Layer_1" xmlns="http://www.w3.org/2000/svg" x="0px" y="0px" viewBox="40 160 395 110" xml:space="preserve">
<g>
	<g>
		<path d="M433.553,174.868c-0.246-0.076-0.52-0.083-0.84-0.085c-2.324,0-4.213,0.167-4.795,0.164
			c-0.594,0.002-3.322-0.164-5.867-0.164c-0.35,0.002-0.648,0.009-0.91,0.082c-0.24,0.046-0.561,0.283-0.547,0.631
			c0,0.131,0.008,0.322,0.162,0.5c0.16,0.17,0.379,0.215,0.617,0.215c0.426,0,1.721,0.057,2.695,0.271
			c1.527,0.396,1.852,1.305,1.941,4.939l0.602,27.266c-2.305-2.41-7.867-8.492-12.959-13.836
			c-8.689-9.123-17.098-18.033-17.938-18.963c-0.613-0.543-1.381-1.773-2.217-1.88c-0.418-0.013-0.719,0.373-0.799,0.826
			c-0.109,0.478-0.148,1.179-0.148,2.269l-0.055,31.688c0.01,5.076-0.354,6.474-1.453,6.707c-0.803,0.267-1.805,0.323-2.227,0.323
			c-0.34,0-0.779,0.219-0.779,0.66c-0.023,0.291,0.191,0.588,0.443,0.668c0.242,0.093,0.49,0.097,0.787,0.099
			c2.549,0,4.941-0.167,5.414-0.167c0.477,0,2.764,0.169,5.984,0.167c0.643,0,1.299-0.099,1.34-0.767c0-0.439-0.436-0.66-0.777-0.66
			c-0.484,0-1.715-0.057-2.74-0.323c-1.271-0.349-1.83-1.545-1.953-6.106l-0.713-25.613c2.359,2.592,8.18,8.932,14.139,15.229
			c5.994,6.314,14.102,14.428,14.746,15.008c3.016,2.91,3.576,3.553,4.34,3.621c0.02,0.004,0.037,0.004,0.057,0.004
			c0.324,0,0.656-0.377,0.668-0.877c0.08-0.568,0.109-1.55,0.109-3.38l0.111-32.409c0.037-3.377,0.189-4.246,1.83-4.603
			c0.662-0.163,1.006-0.158,1.285-0.16c0.459,0,0.936-0.224,0.947-0.715C434.073,175.18,433.79,174.918,433.553,174.868z"/>
		<path d="M156.155,208.908c-0.598,0.002-0.805,0.572-0.833,1.003c-0.153,0.978-0.711,2.336-1.397,3.151
			c-1.192,1.449-3.575,1.553-6.572,1.541c-4.402,0.002-5.767-0.404-6.545-1.179c-0.839-0.729-1.175-4.325-1.143-12.431v-9.846
			c0-8.631,0-10.176,0.111-11.926c0.157-1.927,0.448-2.564,1.93-2.854c0.65-0.105,1.438-0.159,1.808-0.159
			c0.299,0,0.761-0.163,0.778-0.66c0.018-0.26-0.167-0.549-0.408-0.641c-0.233-0.104-0.492-0.125-0.82-0.128
			c-1.702,0-5.835,0.166-6.092,0.166c-0.257,0-3.831-0.166-6.378-0.166c-0.33,0.003-0.588,0.021-0.822,0.128
			c-0.242,0.092-0.424,0.381-0.408,0.641c0.021,0.497,0.479,0.66,0.778,0.66c0.483-0.003,1.455,0.058,1.842,0.156
			c1.757,0.413,2.016,0.997,2.177,2.854c0.111,1.752,0.113,3.297,0.113,11.928v9.732c0,5.307-0.001,9.684-0.281,11.965
			c-0.225,1.623-0.52,2.625-1.375,2.762c-0.498,0.108-1.165,0.213-1.629,0.213c-0.22,0-0.418,0.056-0.569,0.186
			c-0.149,0.133-0.209,0.32-0.207,0.477c-0.017,0.256,0.163,0.545,0.406,0.64c0.232,0.104,0.491,0.125,0.822,0.127
			c1.704,0,5.046-0.165,5.531-0.165c3.249,0,6.987,0.33,15.121,0.33c1.502-0.004,2.31-0.041,2.886-0.301
			c0.6-0.27,0.79-0.801,0.978-1.424c0.467-1.672,0.858-4.947,0.862-5.625c-0.002-0.315-0.005-0.541-0.084-0.758
			C156.674,209.076,156.377,208.883,156.155,208.908z"/>
		<path d="M119.754,215.919c-0.188-0.09-0.366-0.092-0.554-0.097c-0.544,0-1.358-0.055-2.154-0.317
			c-1.091-0.313-2.62-1.062-4.653-5.95c-3.438-8.402-12.296-31.242-13.145-33.35c-0.342-0.863-0.567-1.369-0.776-1.693
			c-0.187-0.322-0.491-0.517-0.77-0.502c-0.686,0.077-0.86,0.581-1.546,2.367h-0.001l-12.808,34.35
			c-1.021,2.762-2.078,4.684-4.475,4.99c-0.428,0.051-1.225,0.105-1.594,0.105c-0.333,0-0.815,0.152-0.834,0.658
			c-0.019,0.289,0.213,0.57,0.467,0.65c0.253,0.094,0.547,0.115,0.93,0.117c2.662,0,5.782-0.167,6.377-0.167
			c0.591,0,3.03,0.167,4.4,0.167c0.5,0,1.143-0.115,1.175-0.77c-0.002-0.461-0.481-0.656-0.89-0.656h-0.565
			c-0.884-0.008-1.815-0.461-1.818-1.278c-0.002-0.937,0.272-2.239,0.769-3.594l3.388-9.796c0.104-0.203,0.121-0.207,0.257-0.223
			h12.131c0.187,0.031,0.09-0.027,0.216,0.155l5.234,13.574c0.084,0.224,0.119,0.409,0.119,0.558
			c-0.005,0.355-0.168,0.479-0.255,0.508c-0.24,0.039-0.623,0.268-0.619,0.696c0.02,0.444,0.429,0.582,0.716,0.621
			c0.33,0.052,0.752,0.063,1.286,0.093c3.908,0.11,8.028,0.11,8.876,0.11c0.607-0.028,1.341-0.013,1.455-0.769
			C120.109,216.254,119.952,215.997,119.754,215.919z M91.707,198.289l4.953-14.891c0.038-0.117,0.078-0.215,0.112-0.285
			c0.035,0.07,0.076,0.166,0.113,0.287l5.344,14.889H91.707z"/>
		<path d="M341.655,209.131c-0.555,0.012-0.742,0.521-0.83,1.098c-0.408,2.24-0.998,3.166-2.342,3.737
			c-1.359,0.571-3.834,0.589-5.293,0.585c-5.563-0.111-5.951-0.49-6.221-4.225c-0.02-0.371-0.023-1.348-0.023-2.535
			c0-2.385,0.023-5.65,0.023-6.904v-4.869c0.002-0.057,0.014-0.052,0.008-0.057c0,0,0-0.003,0.006-0.006
			c0.008,0,0.023-0.002,0.059,0c0.941,0,6.551,0.111,8.033,0.275c2.119,0.246,2.42,1.006,2.654,1.703
			c0.213,0.678,0.213,1.18,0.213,1.732c0,0.337,0.219,0.824,0.725,0.824c0.408,0.005,0.623-0.365,0.66-0.61
			c0.061-0.267,0.059-0.544,0.061-0.769c0-0.354,0.111-2.42,0.223-3.504c0.17-1.824,0.441-2.68,0.451-3.131
			c0-0.203-0.027-0.377-0.137-0.535c-0.107-0.166-0.316-0.244-0.469-0.236c-0.514,0.055-0.684,0.408-1.092,0.829
			c-0.379,0.43-1.072,0.562-2.436,0.668c-1.252,0.106-8.195,0.108-8.941,0.108c-0.008-0.043-0.016-0.123-0.016-0.229v-15.266
			c0-0.114,0.018-0.189,0.029-0.225c0.686,0,6.783,0.057,7.678,0.162c3.039,0.363,3.371,0.907,3.742,1.688
			c0.252,0.574,0.316,1.502,0.314,1.859c0,0.448,0.18,1.045,0.777,1.045c0.6-0.084,0.629-0.597,0.715-0.867
			c0.121-0.727,0.232-3.147,0.287-3.686c0.168-1.531,0.439-2.109,0.453-2.631c-0.008-0.266,0.002-0.749-0.553-0.826
			c-0.457,0.023-0.695,0.275-0.852,0.283c-0.428,0.104-1.326,0.218-2.379,0.271c-1.271,0.055-12.516,0.055-12.906,0.055
			c-0.254,0.002-3.83-0.164-6.375-0.164c-0.332,0.002-0.59,0.02-0.824,0.127c-0.242,0.094-0.426,0.381-0.406,0.643
			c0.02,0.494,0.479,0.658,0.777,0.658c0.482-0.003,1.455,0.059,1.84,0.156c1.758,0.412,2.014,0.996,2.178,2.854
			c0.111,1.752,0.113,3.299,0.113,11.928v9.735c0,5.304-0.002,9.681-0.283,11.962c-0.221,1.62-0.516,2.623-1.373,2.76
			c-0.498,0.11-1.164,0.215-1.629,0.215c-0.219,0-0.42,0.056-0.57,0.188c-0.148,0.128-0.211,0.318-0.209,0.475
			c-0.016,0.258,0.168,0.545,0.406,0.64c0.234,0.104,0.494,0.125,0.822,0.127c1.703,0,5.273-0.167,5.531-0.167
			c1.604,0,5.412,0.334,13.938,0.334c1.102-0.004,1.775,0.014,2.324-0.204c0.568-0.231,0.842-0.741,1.037-1.474
			c0.295-1.234,0.74-4.934,0.746-5.451c-0.002-0.195,0.004-0.42-0.057-0.646C342.233,209.43,341.995,209.115,341.655,209.131z"/>
		<path d="M372.852,215.82c-0.473,0-1.725-0.108-2.494-0.217c-1.488-0.213-1.721-1.139-1.92-2.754
			c-0.277-2.283-0.281-6.66-0.281-11.965v-9.736c0-8.629,0-10.174,0.111-11.924c0.152-1.931,0.461-2.574,1.822-2.854
			c0.674-0.107,0.992-0.161,1.352-0.161c0.301,0,0.758-0.162,0.779-0.655c0.014-0.262-0.168-0.55-0.41-0.645
			c-0.232-0.104-0.488-0.125-0.822-0.127c-1.701,0-5.271,0.166-5.529,0.166c-0.254,0-3.828-0.166-5.695-0.166
			c-0.332,0.002-0.59,0.021-0.824,0.127c-0.244,0.095-0.424,0.383-0.406,0.645c0.018,0.493,0.479,0.655,0.777,0.655
			c0.363,0,1.09,0.058,1.662,0.211c1.082,0.257,1.541,0.954,1.68,2.802c0.109,1.754,0.109,3.297,0.109,11.928v9.734
			c0,5.307-0.002,9.682-0.277,11.963c-0.225,1.623-0.521,2.623-1.375,2.762c-0.498,0.109-1.166,0.213-1.633,0.213
			c-0.219,0-0.418,0.056-0.568,0.188c-0.148,0.129-0.209,0.314-0.207,0.475c-0.018,0.259,0.166,0.545,0.406,0.642
			c0.234,0.104,0.492,0.123,0.82,0.125c1.703,0,5.275-0.165,5.531-0.165s3.832,0.165,6.941,0.165c0.629,0,1.203-0.185,1.229-0.767
			c0-0.159-0.059-0.346-0.209-0.475C373.274,215.877,373.075,215.82,372.852,215.82z"/>
		<path d="M303.01,174.395c-0.6,0.016-1.979,0.551-5.586,0.555h-21.161c-0.655,0-2.804-0.109-4.423-0.273
			c-1.491-0.107-1.861-0.611-2.516-0.664c-0.463,0.077-0.484,0.369-0.625,0.594c-0.109,0.242-0.195,0.516-0.248,0.679
			c-0.127,0.504-1.246,5.168-1.26,5.856c0,0.367,0.163,0.811,0.609,0.823c0.365,0.022,0.717-0.284,0.869-0.765
			c0.16-0.368,0.312-0.717,0.925-1.648c0.809-1.188,1.983-1.561,5.489-1.625l8.019-0.105l0.001,23.064
			c0,5.309-0.001,9.682-0.281,11.963c-0.227,1.621-0.52,2.625-1.375,2.762c-0.5,0.109-1.166,0.216-1.629,0.216
			c-0.22-0.003-0.421,0.054-0.568,0.187c-0.151,0.127-0.211,0.315-0.211,0.471c-0.018,0.26,0.166,0.549,0.408,0.645
			c0.233,0.104,0.492,0.123,0.824,0.125c1.7,0,5.271-0.165,5.527-0.165c0.255,0,3.834,0.165,6.939,0.165
			c0.631,0,1.205-0.188,1.229-0.77c0.002-0.154-0.058-0.344-0.207-0.471c-0.151-0.133-0.349-0.189-0.569-0.187
			c-0.472,0-1.723-0.111-2.492-0.222c-1.49-0.213-1.72-1.137-1.923-2.752c-0.276-2.285-0.278-6.658-0.278-11.967V177.82l6.774,0.105
			c5.413,0.145,6.417,1.323,6.622,2.76l0.059,0.596c0.029,0.396,0.063,0.652,0.172,0.878c0.102,0.243,0.408,0.382,0.604,0.358
			c0.502-0.011,0.719-0.513,0.719-1.045c0-0.588,0.17-4.414,0.17-6.086c0-0.168,0.008-0.348-0.047-0.547
			C303.542,174.648,303.299,174.375,303.01,174.395z"/>
		<path d="M58.636,192.936l-1.58-1.215c-5.308-4.271-6.753-6.035-6.756-9.031c0.013-3.854,2.845-6.069,6.613-6.092
			c5.092,0.016,6.453,2.231,6.766,2.766c0.293,0.508,0.65,2.029,0.694,2.635c0.026,0.398,0.152,1.008,0.779,1.018
			c0.322,0.01,0.555-0.279,0.613-0.537c0.08-0.27,0.104-0.604,0.106-1.063c0-3.764,0.224-5.525,0.226-5.863
			c0.005-0.17-0.044-0.414-0.245-0.561c-0.196-0.137-0.396-0.15-0.646-0.153c-0.419,0-0.841-0.049-1.909-0.269
			c-1.426-0.338-3.09-0.561-5.313-0.561c-7.286,0.008-11.997,4.174-12.009,10.283c-0.01,3.854,1.439,7.43,7.457,12.256l2.541,2.045
			c4.845,3.939,6.356,6.006,6.366,9.701c-0.015,3.383-2.497,7.02-7.741,7.029c-3.712-0.014-7.228-1.49-8.03-5.383
			c-0.163-0.732-0.163-1.481-0.163-1.979c-0.004-0.231-0.002-0.422-0.116-0.633c-0.124-0.229-0.401-0.313-0.607-0.302
			c-0.602,0.037-0.733,0.603-0.776,1.183c-0.056,0.88-0.284,3.112-0.284,5.892c-0.054,1.431,0.146,2.018,1.028,2.396l0.146-0.292
			l-0.141,0.295c2.373,1.133,5.017,1.525,7.701,1.525c3.092,0,6.206-0.674,8.704-2.381c4.013-2.799,4.939-7.108,4.939-9.449
			C67.015,201.672,65.325,198.084,58.636,192.936z"/>
		<path d="M254.823,174.868c-0.244-0.077-0.52-0.084-0.839-0.084c-2.325,0-4.212,0.165-4.797,0.165
			c-0.591,0-3.319-0.165-5.869-0.165c-0.349,0-0.647,0.01-0.905,0.081c-0.246,0.047-0.561,0.283-0.549,0.632
			c0,0.131,0.01,0.325,0.163,0.498c0.161,0.17,0.379,0.217,0.617,0.217c0.426,0,1.724,0.056,2.694,0.267
			c1.525,0.401,1.855,1.312,1.941,4.941l0.604,27.268c-2.303-2.408-7.869-8.492-12.959-13.834
			c-8.687-9.125-17.099-18.037-17.937-18.967c-0.613-0.541-1.384-1.769-2.219-1.877c-0.419-0.015-0.719,0.371-0.797,0.825
			c-0.109,0.476-0.151,1.177-0.151,2.267l-0.056,31.69c0.014,5.078-0.351,6.474-1.453,6.709c-0.801,0.263-1.799,0.321-2.225,0.321
			c-0.341,0-0.778,0.221-0.778,0.66c-0.021,0.287,0.195,0.59,0.444,0.666c0.242,0.095,0.491,0.099,0.786,0.101
			c2.545,0,4.94-0.167,5.416-0.167c0.471,0,2.76,0.167,5.981,0.167c0.646,0,1.301-0.099,1.341-0.767c0-0.441-0.439-0.66-0.776-0.66
			c-0.491,0-1.717-0.055-2.741-0.321c-1.273-0.351-1.834-1.549-1.957-6.108l-0.709-25.611c2.359,2.59,8.176,8.929,14.136,15.229
			c5.995,6.313,14.1,14.428,14.75,15.008c3.012,2.908,3.57,3.549,4.335,3.619c0.021,0.004,0.039,0.004,0.06,0.004
			c0.324,0,0.655-0.375,0.668-0.877c0.082-0.568,0.106-1.55,0.106-3.38l0.113-32.409c0.04-3.377,0.194-4.248,1.829-4.603
			c0.66-0.162,1.008-0.159,1.287-0.159c0.459,0,0.935-0.225,0.949-0.715C255.344,175.178,255.063,174.917,254.823,174.868z"/>
		<path d="M194.518,209.129c-0.554,0.014-0.746,0.521-0.832,1.1c-0.406,2.24-0.995,3.164-2.34,3.737
			c-1.357,0.569-3.833,0.591-5.292,0.585c-5.562-0.113-5.955-0.488-6.221-4.223c-0.019-0.372-0.025-1.35-0.025-2.538
			c0-2.384,0.025-5.647,0.025-6.905v-4.869c0.004-0.056,0.013-0.051,0.006-0.056c0,0,0-0.003,0.005-0.005
			c0.006,0,0.023-0.003,0.058,0c0.943,0,6.551,0.113,8.034,0.275c2.118,0.246,2.42,1.006,2.656,1.703
			c0.211,0.678,0.211,1.178,0.213,1.732c0,0.337,0.214,0.824,0.721,0.824c0.406,0.005,0.625-0.364,0.663-0.609
			c0.061-0.266,0.057-0.545,0.059-0.768c0-0.356,0.113-2.42,0.224-3.508c0.167-1.822,0.443-2.676,0.453-3.129
			c-0.002-0.203-0.029-0.377-0.138-0.537c-0.111-0.164-0.322-0.239-0.471-0.232c-0.514,0.053-0.683,0.408-1.091,0.829
			c-0.381,0.428-1.073,0.558-2.434,0.665c-1.253,0.107-8.208,0.109-8.942,0.109c-0.007-0.045-0.015-0.123-0.015-0.228V177.82
			c0-0.117,0.017-0.194,0.029-0.229c0.686,0.003,6.783,0.06,7.677,0.167c3.036,0.359,3.369,0.905,3.745,1.689
			c0.247,0.572,0.314,1.498,0.311,1.855c0,0.447,0.178,1.047,0.778,1.047c0.602-0.086,0.631-0.598,0.713-0.871
			c0.123-0.724,0.234-3.146,0.29-3.682c0.163-1.533,0.439-2.109,0.452-2.635c-0.009-0.268,0-0.745-0.552-0.823
			c-0.46,0.024-0.698,0.276-0.853,0.283c-0.423,0.104-1.324,0.215-2.38,0.269c-1.269,0.057-12.517,0.057-12.904,0.057
			c-0.256,0-3.831-0.166-6.378-0.166c-0.33,0.003-0.586,0.023-0.822,0.128c-0.242,0.093-0.424,0.382-0.404,0.644
			c0.019,0.494,0.477,0.657,0.776,0.657c0.483-0.002,1.453,0.06,1.84,0.157c1.76,0.414,2.018,0.996,2.179,2.855
			c0.111,1.752,0.113,3.295,0.113,11.926v9.734c0,5.307-0.002,9.682-0.28,11.963c-0.226,1.623-0.521,2.623-1.375,2.76
			c-0.502,0.11-1.169,0.215-1.633,0.215c-0.218,0-0.417,0.056-0.567,0.186c-0.151,0.131-0.21,0.318-0.208,0.477
			c-0.018,0.256,0.165,0.545,0.406,0.64c0.234,0.104,0.491,0.125,0.824,0.127c1.702,0,5.271-0.165,5.529-0.165
			c1.603,0,5.412,0.332,13.937,0.332c1.098-0.004,1.775,0.014,2.325-0.205c0.569-0.227,0.843-0.74,1.037-1.475
			c0.295-1.234,0.742-4.93,0.745-5.45c-0.002-0.195,0.004-0.418-0.054-0.644C195.097,209.428,194.857,209.115,194.518,209.129z"/>
	</g>
	<g>
		<path fill="#C37029" d="M116.32,240.117c-0.361,0-2.163,0.132-3.18,0.132c-1.287,0-2.379-0.132-3.59-0.132
			c-0.245,0.003-0.765,0.168-0.767,0.806c0.016,0.341,0.311,0.528,0.623,0.604c1.064,0.232,2.767,0.268,2.659,0.957
			c0.002,0.098-0.03,0.246-0.056,0.324l-4.648,12.073c-0.081,0.195-0.246,0.229-0.394,0.237c-0.134-0.15-0.676-1.096-2.097-4.537
			l-3.488-8.363c-0.031-0.089-0.054-0.169-0.054-0.223c0.002-0.438,0.375-0.452,1.036-0.469c0.058,0,0.118,0.004,0.18,0.004
			c0.626-0.006,1.503-0.024,1.554-0.805c-0.108-0.642-0.932-0.572-1.177-0.61c-1.109,0-2.237,0.132-3.316,0.132
			c-1.287,0-2.586-0.132-3.896-0.132c-0.232,0.04-0.931,0.003-1.042,0.577c0.037,0.729,0.789,0.74,1.353,0.834
			c0.655,0.097,1.296,0.234,1.54,0.716l7.923,18.249c0.099,0.176,0.226,0.559,0.649,0.566h0.014c0.261,0,0.484-0.154,0.568-0.373
			l6.837-15.947c1.202-2.727,1.231-2.93,3.034-3.211c0.394-0.062,0.442-0.451,0.433-0.672
			C117.017,240.48,116.743,240.117,116.32,240.117z"/>
		<path fill="#C37029" d="M142.722,259.371c-0.3-0.074-0.68-0.113-1.127-0.239c-0.373-0.112-1.006-0.46-1.652-2.228l-6.359-17.282
			c-0.075-0.242-0.326-0.347-0.583-0.351c-0.193,0-0.4,0.092-0.506,0.295l-8.72,18.854c-0.172,0.333-0.255,0.479-0.917,0.714
			c-0.407,0.141-0.833,0.196-1.174,0.271c-0.317,0.07-0.675,0.168-0.696,0.558c-0.001,0.171,0.04,0.333,0.164,0.442
			c0.124,0.107,0.276,0.133,0.433,0.133c1.175,0,2.506-0.131,3.793-0.131c0.976,0,2.067,0.131,3.008,0.131
			c0.208-0.012,0.912,0.057,0.972-0.575c-0.039-0.323-0.305-0.394-0.603-0.504c-0.319-0.104-0.754-0.2-1.283-0.33
			c-0.257-0.056-0.872-0.312-0.848-0.794c-0.021-0.234,1.602-4.818,2.405-6.361c0.002-0.08,0.414-0.281,2.201-0.264
			c0.195,0,0.407,0.004,0.638,0.007c1.401,0.015,2.141,0.028,2.514,0.125c0.356,0.106,0.375,0.187,0.526,0.597l0,0l1.675,5.27
			c0.072,0.268,0.201,0.596,0.195,0.757c0.031,0.384-0.54,0.646-0.698,0.662c-1.202,0.229-1.971,0.202-2.069,0.869
			c0,0.243,0.231,0.543,0.664,0.543c1.345,0,2.543-0.13,3.793-0.13c1.32,0,2.483,0.13,3.965,0.13c0.393,0,0.869-0.089,0.87-0.575
			C143.313,259.609,143.008,259.425,142.722,259.371z M131.837,249.915c-0.136,0-0.75,0-1.326-0.021
			c-0.288-0.01-0.568-0.024-0.769-0.049c-0.061-0.007-0.116-0.013-0.159-0.021c0.036-0.109,0.112-0.248,0.173-0.41l2.285-5.229
			c0.003-0.008,0.006-0.017,0.009-0.021c0.008,0.018,0.018,0.039,0.031,0.068l1.801,5.117c0.078,0.219,0.129,0.358,0.15,0.459
			C133.668,249.891,131.98,249.932,131.837,249.915z"/>
		<path fill="#C37029" d="M165.917,255.676c-0.483,0.082-0.773,0.739-1.473,1.434c-0.659,0.695-1.54,1.408-2.688,1.563
			c-1.424,0.193-3.028,0.258-3.77,0.258c-0.87-0.045-1.141-0.002-1.181-0.951v-14.746c0.041-1.558,0.596-1.658,1.523-1.701
			c0.814-0.043,1.764,0.057,1.896-0.641c-0.013-0.703-0.693-0.771-1.314-0.771c-1.312,0-2.576,0.128-3.863,0.128
			c-1.561,0-2.755-0.128-4.137-0.128c-0.286,0-0.978,0.015-1.007,0.673c0.062,0.662,0.809,0.693,1.409,0.738
			c1.46,0.087,2.183,0.236,2.182,1.215v14.387c-0.047,1.752-0.455,1.779-2.495,1.994c-0.342,0.016-0.951,0.077-0.958,0.709
			c-0.002,0.163,0.018,0.387,0.213,0.527c0.186,0.137,0.438,0.175,0.864,0.177c1.65,0,3.256-0.129,4.887-0.129
			c5.159,0,7.306,0.129,9.126,0.129c0.01,0.001,0.02,0.001,0.031,0.001c0.224,0,0.688-0.139,0.833-0.727
			c0.348-1.39,0.518-2.912,0.52-3.397C166.512,256.148,166.412,255.676,165.917,255.676z"/>
		<path fill="#C37029" d="M189.161,255.676c-0.483,0.082-0.773,0.739-1.473,1.434c-0.658,0.695-1.54,1.408-2.688,1.563
			c-1.422,0.193-3.026,0.258-3.77,0.258c-0.87-0.045-1.14-0.002-1.181-0.951v-14.746c0.041-1.558,0.595-1.658,1.523-1.701
			c0.813-0.043,1.764,0.057,1.895-0.641c-0.013-0.703-0.693-0.771-1.313-0.771c-1.312,0-2.576,0.128-3.863,0.128
			c-1.562,0-2.755-0.128-4.135-0.128c-0.288,0-0.977,0.015-1.008,0.673c0.062,0.662,0.81,0.693,1.409,0.738
			c1.46,0.087,2.183,0.236,2.181,1.215v14.387c-0.045,1.752-0.453,1.779-2.494,1.994c-0.342,0.016-0.95,0.077-0.958,0.709
			c-0.002,0.163,0.017,0.387,0.213,0.527c0.185,0.137,0.438,0.175,0.863,0.177c1.65,0,3.256-0.129,4.886-0.129
			c5.16,0,7.307,0.129,9.127,0.129c0.01,0.001,0.021,0.001,0.031,0.001c0.224,0,0.688-0.139,0.833-0.727
			c0.348-1.39,0.518-2.912,0.52-3.397C189.756,256.148,189.655,255.676,189.161,255.676z"/>
		<path fill="#C37029" d="M213.295,255.188c-0.854,0.117-0.544,0.953-2.19,2.697c-0.682,0.733-1.37,1.037-3.69,1.045
			c-1.977,0.004-3.005-0.048-3.464-0.25c-0.426-0.186-0.439-0.438-0.451-1.191v-6.313c0.029-0.541,0.016-0.611,1.66-0.66
			c4.255,0.049,4.305,0.15,4.636,1.769c0.166,0.892,0.179,1.575,0.9,1.616c0.491,0,0.562-0.467,0.562-0.739
			c0-0.933-0.137-1.804-0.135-3.157c-0.002-1.518,0.135-1.956,0.135-2.732c-0.001-0.187-0.001-0.371-0.095-0.549
			c-0.095-0.188-0.313-0.295-0.57-0.289c-0.692,0.092-0.603,0.889-0.849,1.526c-0.233,0.671-0.564,1.259-1.749,1.272h-2.974
			c-1.243-0.021-1.523-0.061-1.523-0.528v-5.632c0.055-1.1,0.071-1.293,1.25-1.344c5.847,0.029,5.82,0.478,6.322,1.551
			c0.272,0.55,0.387,0.902,0.502,1.148c0.093,0.245,0.31,0.441,0.591,0.426c0.176,0,0.447-0.092,0.46-0.381v-3.125
			c-0.002-0.345,0.006-0.613-0.075-0.843c-0.075-0.243-0.33-0.403-0.624-0.388c-2.908,0-7.731,0.13-8.75,0.13
			c-0.845,0-3.65-0.13-4.923-0.13c-0.509,0.021-1.106,0.035-1.178,0.576c0.056,0.617,0.641,0.635,1.656,0.834
			c1.288,0.304,1.426,0.33,1.456,1.088v15.23c-0.008,1.213-0.758,0.988-1.748,1.285c-0.409,0.111-0.768,0.148-1.053,0.229
			c-0.275,0.063-0.563,0.259-0.551,0.604c0.062,0.635,0.765,0.564,1.006,0.576c0.197,0,0.356-0.032,0.966-0.064
			c0.579-0.031,1.635-0.063,3.513-0.063h9.742c0.521,0.03,0.89-0.272,0.968-0.833l0.649-3.321c0.025-0.2,0.128-0.333,0.141-0.558
			c-0.002-0.092-0.004-0.217-0.095-0.336C213.634,255.24,213.477,255.186,213.295,255.188z"/>
		<path fill="#C37029" d="M241.973,239.922c-1.098,0-2.061,0.033-2.954,0.1c-0.853,0.033-1.669,0.099-2.516,0.099h-3.109
			c-0.385,0.022-1.435-0.084-1.521,0.737c-0.02,0.218,0.131,0.449,0.345,0.498c0.203,0.066,0.458,0.078,0.852,0.11
			c0.457,0.033,1.034,0.035,1.482,0.103c0.474,0.064,0.688,0.209,0.67,0.332v15.297c-0.044,1.83-0.626,1.76-1.384,1.933
			c-1.03,0.157-1.411,0.485-1.418,0.899c0.054,0.562,0.659,0.502,0.8,0.512c0.422,0,0.936-0.033,1.481-0.064
			c0.548-0.033,1.126-0.066,1.598-0.066h8.067c5.959-0.008,10.776-4.059,10.782-9.069
			C255.135,243.378,249.2,239.934,241.973,239.922z M242.726,259.256c-2.185-0.011-4.185-0.972-4.188-3.1v-14.028
			c0.026-0.354-0.136-0.808,2.686-0.856c4.172,0.006,10.331,2.918,10.342,9.447C251.554,257.178,245.329,259.253,242.726,259.256z"
			/>
		<path fill="#C37029" d="M279.198,255.188c-0.854,0.117-0.544,0.953-2.188,2.697c-0.684,0.733-1.373,1.037-3.691,1.045
			c-1.979,0.004-3.007-0.048-3.467-0.25c-0.426-0.186-0.438-0.438-0.45-1.191v-6.313c0.031-0.541,0.019-0.611,1.659-0.66
			c4.256,0.049,4.307,0.153,4.636,1.769c0.167,0.892,0.181,1.579,0.902,1.616c0.489,0,0.562-0.469,0.562-0.739
			c0-0.933-0.137-1.804-0.137-3.157c0-1.518,0.137-1.956,0.137-2.732c-0.002-0.187-0.002-0.371-0.096-0.549
			c-0.093-0.188-0.311-0.295-0.568-0.289c-0.693,0.092-0.604,0.889-0.849,1.526c-0.233,0.671-0.565,1.259-1.75,1.272h-2.974
			c-1.243-0.021-1.521-0.061-1.522-0.528v-5.632c0.054-1.1,0.071-1.293,1.25-1.344c5.849,0.029,5.82,0.478,6.325,1.551
			c0.271,0.55,0.385,0.902,0.501,1.148c0.092,0.245,0.31,0.441,0.591,0.426c0.178,0,0.446-0.092,0.459-0.381v-3.125
			c-0.001-0.345,0.006-0.613-0.074-0.843c-0.076-0.243-0.332-0.403-0.625-0.388c-2.91,0-7.732,0.13-8.75,0.13
			c-0.845,0-3.65-0.13-4.922-0.13c-0.511,0.021-1.105,0.035-1.18,0.576c0.057,0.617,0.641,0.635,1.656,0.834
			c1.287,0.304,1.427,0.33,1.455,1.088v15.23c-0.006,1.213-0.756,0.988-1.746,1.285c-0.407,0.111-0.768,0.148-1.053,0.229
			c-0.274,0.063-0.561,0.259-0.551,0.604c0.063,0.635,0.766,0.564,1.008,0.576c0.198,0,0.355-0.032,0.967-0.064
			c0.576-0.031,1.634-0.063,3.512-0.063h9.74c0.525,0.03,0.892-0.272,0.972-0.833l0.649-3.321c0.024-0.2,0.127-0.333,0.139-0.558
			c-0.001-0.092-0.004-0.217-0.094-0.336C279.54,255.24,279.379,255.186,279.198,255.188z"/>
		<path fill="#C37029" d="M320.387,240.119c-1.006,0-2.033,0.128-3.008,0.128c-0.941,0-1.965-0.128-2.939-0.128
			c-0.439,0-0.881,0.169-0.904,0.607c-0.016,0.377,0.246,0.623,0.51,0.685c0.262,0.073,0.553,0.071,0.805,0.118
			c1.289,0.283,1.471,0.15,1.523,1.639v9.374c-0.039,4.976-1.662,6.938-6.344,6.976c-4.416-0.037-5.756-1.813-5.795-5.738
			c0-1.809,0.006-10.114,0.336-11.512c0.09-0.475,0.705-0.676,1.275-0.736c0.527,0,0.906,0.007,1.193-0.075
			c0.297-0.063,0.498-0.345,0.477-0.661c-0.08-0.607-0.801-0.648-1.041-0.675c-1.654,0-2.34,0.128-3.83,0.128
			c-1.422,0-2.516-0.128-3.963-0.128c-0.289,0-0.521,0.036-0.699,0.18c-0.18,0.146-0.242,0.372-0.238,0.624
			c0.014,0.363,0.354,0.479,0.686,0.529c0.357,0.056,0.828,0.063,1.375,0.078c1.195,0.066,1.209,0.434,1.256,2.095
			c0,2.825-0.137,5.69-0.137,9.536c0,2.434,0.213,4.388,1.332,5.761c1.123,1.37,3.105,2.075,6.512,2.072
			c3.813,0,6.16-0.716,7.559-2.149c1.396-1.438,1.789-3.537,1.789-6.203v-9.504c0.035-1.438,0.557-1.402,1.818-1.605
			c0.33-0.051,0.605-0.045,0.846-0.107c0.244-0.044,0.467-0.285,0.443-0.6C321.221,240.447,320.922,240.119,320.387,240.119z"/>
		<path fill="#C37029" d="M346.776,255.838c-0.561,0.063-0.779,0.676-1.578,1.598c-0.814,0.959-2.066,2.205-4.984,2.213
			c-5.279-0.01-8.08-4.44-8.088-8.861c0.002-5.999,4.168-9.766,8.361-9.773c4.49,0.008,4.721,2.98,6.084,3.123
			c0.129,0.008,0.307-0.037,0.375-0.189c0.061-0.135,0.047-0.238,0.051-0.387c0.072-2.744-0.203-3.158-3.199-3.568
			c-1.246-0.23-2.883-0.327-3.377-0.327c-8.33,0.011-12.275,5.498-12.289,10.896c0.002,6.604,5.867,10.428,12.32,10.438
			c1.578,0,3.061-0.255,4.184-0.57c1.131-0.345,1.863-0.646,2.074-1.041c0.17-0.354,0.666-1.373,0.662-3.101
			C347.313,255.939,347.02,255.865,346.776,255.838z"/>
		<path fill="#C37029" d="M366.635,239.663c-6.617,0.011-11.521,4.696-11.535,10.667c0.014,6.32,4.924,10.654,11.365,10.666
			c8.477-0.012,11.793-6.1,11.807-10.797C378.26,245.686,374.774,239.674,366.635,239.663z M373.2,255.307
			c-1.008,2.287-2.883,4.334-6.564,4.342c-2.727-0.017-7.529-1.932-7.541-9.252c0.016-6.795,3.807-9.373,7.404-9.385
			c5.303,0.01,7.768,4.563,7.777,8.699C374.276,250.512,374.198,253.023,373.2,255.307z"/>
	</g>
</g>
</svg>
