<svg xmlns="http://www.w3.org/2000/svg" fill="none" viewBox="202 35 65 70">
    <defs><g/>
        <clipPath id="581b23908b">
         <path d="M 204.539062 41.011719 L 233.285156 41.011719 L 233.285156 68.886719 L 204.539062 68.886719 Z M 204.539062 41.011719 " clip-rule="nonzero"/>
        </clipPath><clipPath id="a0e938b36e">
            <path d="M 211.277344 41.011719 L 226.484375 41.011719 C 228.269531 41.011719 229.984375 41.722656 231.25 42.988281 C 232.511719 44.25 233.222656 45.964844 233.222656 47.753906 L 233.222656 62.148438 C 233.222656 63.9375 232.511719 65.652344 231.25 66.914062 C 229.984375 68.179688 228.269531 68.886719 226.484375 68.886719 L 211.277344 68.886719 C 209.488281 68.886719 207.773438 68.179688 206.511719 66.914062 C 205.246094 65.652344 204.539062 63.9375 204.539062 62.148438 L 204.539062 47.753906 C 204.539062 44.03125 207.554688 41.011719 211.277344 41.011719 Z M 211.277344 41.011719 " clip-rule="nonzero"/>
        </clipPath><clipPath id="3519308912">
            <path d="M 204.539062 72.046875 L 233.285156 72.046875 L 233.285156 99.921875 L 204.539062 99.921875 Z M 204.539062 72.046875 " clip-rule="nonzero"/>
        </clipPath><clipPath id="780f9d01b9">
            <path d="M 211.277344 72.046875 L 226.484375 72.046875 C 228.269531 72.046875 229.984375 72.757812 231.25 74.023438 C 232.511719 75.285156 233.222656 77 233.222656 78.785156 L 233.222656 93.183594 C 233.222656 94.972656 232.511719 96.683594 231.25 97.949219 C 229.984375 99.210938 228.269531 99.921875 226.484375 99.921875 L 211.277344 99.921875 C 209.488281 99.921875 207.773438 99.210938 206.511719 97.949219 C 205.246094 96.683594 204.539062 94.972656 204.539062 93.183594 L 204.539062 78.785156 C 204.539062 75.066406 207.554688 72.046875 211.277344 72.046875 Z M 211.277344 72.046875 " clip-rule="nonzero"/>
        </clipPath><clipPath id="022231fac6">
            <path d="M 235.675781 72.046875 L 264.421875 72.046875 L 264.421875 99.921875 L 235.675781 99.921875 Z M 235.675781 72.046875 " clip-rule="nonzero"/>
        </clipPath><clipPath id="aed6ec4016">
            <path d="M 242.414062 72.046875 L 257.621094 72.046875 C 259.410156 72.046875 261.121094 72.757812 262.386719 74.023438 C 263.648438 75.285156 264.359375 77 264.359375 78.785156 L 264.359375 93.183594 C 264.359375 94.972656 263.648438 96.683594 262.386719 97.949219 C 261.121094 99.210938 259.410156 99.921875 257.621094 99.921875 L 242.414062 99.921875 C 240.628906 99.921875 238.914062 99.210938 237.648438 97.949219 C 236.386719 96.683594 235.675781 94.972656 235.675781 93.183594 L 235.675781 78.785156 C 235.675781 75.066406 238.691406 72.046875 242.414062 72.046875 Z M 242.414062 72.046875 " clip-rule="nonzero"/>
        </clipPath><clipPath id="9e374038f7"><path d="M 235.675781 41.011719 L 263.550781 41.011719 L 263.550781 68.886719 L 235.675781 68.886719 Z M 235.675781 41.011719 " clip-rule="nonzero"/>
        </clipPath><clipPath id="b468dbbadb"><path d="M 249.613281 41.011719 C 241.914062 41.011719 235.675781 47.253906 235.675781 54.949219 C 235.675781 62.648438 241.914062 68.886719 249.613281 68.886719 C 257.308594 68.886719 263.550781 62.648438 263.550781 54.949219 C 263.550781 47.253906 257.308594 41.011719 249.613281 41.011719 Z M 249.613281 41.011719 " clip-rule="nonzero"/>
        </clipPath>
    </defs>
    <g clip-path="url(#581b23908b)">
        <g clip-path="url(#a0e938b36e)">
            <path fill="#231f20" d="M 204.539062 41.011719 L 233.175781 41.011719 L 233.175781 68.886719 L 204.539062 68.886719 Z M 204.539062 41.011719 " fill-opacity="1" fill-rule="nonzero"/>
        </g>
    </g>
    <g clip-path="url(#3519308912)">
        <g clip-path="url(#780f9d01b9)">
            <path fill="#231f20" d="M 204.539062 72.046875 L 233.175781 72.046875 L 233.175781 99.921875 L 204.539062 99.921875 Z M 204.539062 72.046875 " fill-opacity="1" fill-rule="nonzero"/>
        </g>
    </g>
    <g clip-path="url(#022231fac6)">
        <g clip-path="url(#aed6ec4016)">
            <path fill="#231f20" d="M 235.675781 72.046875 L 264.3125 72.046875 L 264.3125 99.921875 L 235.675781 99.921875 Z M 235.675781 72.046875 " fill-opacity="1" fill-rule="nonzero"/>
        </g>
    </g>
    <g clip-path="url(#9e374038f7)">
        <g clip-path="url(#b468dbbadb)">
            <path fill="#1f7189" d="M 235.675781 41.011719 L 263.550781 41.011719 L 263.550781 68.886719 L 235.675781 68.886719 Z M 235.675781 41.011719 " fill-opacity="1" fill-rule="nonzero"/>
        </g>
    </g>
</svg>
